<?xml version="1.0" encoding="utf-8"?>
<!-- Generator: Adobe Illustrator 26.2.1, SVG Export Plug-In . SVG Version: 6.00 Build 0)  -->
<svg version="1.1" xmlns="http://www.w3.org/2000/svg" xmlns:xlink="http://www.w3.org/1999/xlink" x="0px" y="0px"
	 viewBox="0 0 1920 1080" style="enable-background:new 0 0 1920 1080;" xml:space="preserve">
<style type="text/css">
	.st0{display:none;}
	.st1{display:inline;}
	.st2{fill:none;stroke:#000000;stroke-miterlimit:10;}
	.st3{display:inline;fill:none;stroke:#000000;stroke-miterlimit:10;}
</style>
<g id="서울" class="st0">
	
		<image style="overflow:visible;" width="1134" height="938" xlink:href="스크린샷 2022-05-17 오전 11.46.27.png"  transform="matrix(0.7985 0 0 0.7985 507.2463 158)">
	</image>
	<g id="북부지법" class="st1">
		<polygon id="중랑구" class="st2" points="1236,393.9 1236,454 1212,495.7 1165,515.9 1150,418.5 1212,380 		"/>
		<polygon id="성북구" class="st2" points="969.7,345 1068,414 1103,393.9 1150,418.5 1041.4,495.7 985,445 952,353 		"/>
		<polygon id="동대문구" class="st2" points="1150,536 1054,507 1041.4,495.7 1150,418.5 1165,515.9 		"/>
		<polygon id="도봉구" class="st2" points="1031.5,182 1111,222 1121,331 1081.2,363.6 1041,308 1012,222 		"/>
		<polygon id="노원구" class="st2" points="1160,197 1194,234 1184,299 1212,380 1150,418.5 1103,393.9 1081.2,363.6 1121,331 
			1111,222 		"/>
		<polygon id="강북구" class="st2" points="1012,222 960,287 969.7,345 1068,414 1103,393.9 1041,308 		"/>
	</g>
	<g id="남부지법">
		<polygon id="영등포구" class="st3" points="783,562.1 891.9,637 845,666 814.1,720 768,647 		"/>
		<polygon id="양천구" class="st3" points="653,605 647,647 677,677 768,647 783,562.1 721,570 703,605 		"/>
		<polygon id="금천구" class="st3" points="749,707 821.5,736.3 854,808 807,842 768,780 		"/>
		<polygon id="구로구" class="st3" points="821.5,736.3 814.1,720 768,647 677,677 647,647 637,736 696,743.5 749,707 		"/>
		<path id="강서구" class="st3" d="M639,455c-33,30.3-66,60.7-99,91l58,43l35-6l20,22h50l18-35l62-7.9
			C735,526.4,687,490.7,639,455z"/>
	</g>
	<g id="서부지법">
		<polygon id="은평구" class="st3" points="905,299 824,329 792,461 814.1,488.7 952,353 		"/>
		<polygon id="용산구" class="st3" points="1041.4,598 992.5,647 934,643 887,611 934,546 1021,570 		"/>
		<polygon id="서대문구" class="st3" points="924,444 934,546 855,540 814.1,488.7 885.5,418.5 		"/>
		<polygon id="마포구" class="st3" points="727,494 792,461 855,540 934,546 887,611 		"/>
	</g>
	<g id="동부지법">
		<polygon id="송파구" class="st3" points="1141,641 1212,623 1236,583 1287,647 1319,681 1260,761 1212,706 1150,672 		"/>
		<polygon id="성동구" class="st3" points="1021,570 1041.4,598 1081.2,584 1121,605 1150,536 1054,507 		"/>
		<polygon id="광진구" class="st3" points="1217,536 1217,575 1198,611 1146.6,623 1121,605 1150,536 1165,515.9 1212,495.7 		
			"/>
		<polygon id="강동구" class="st3" points="1236,532.5 1348,477.2 1366,559.3 1317,584 1287,647 1236,583 		"/>
	</g>
	<g id="중앙지법">
		<polygon id="중구" class="st3" points="934,546 1021,570 1054,507 931,515.9 		"/>
		<polygon id="종로구" class="st3" points="1054,507 931,515.9 924,444 885.5,418.5 952,353 985,445 		"/>
		<polygon id="서초구" class="st3" points="969.7,667 1006,662 1036,623 1066.5,714 1121,761 1169,743 1203,786 1121,864 
			1072,830 1062,775 986,768 964.2,743.5 		"/>
		<polygon id="동작구" class="st3" points="814.1,720 919,702 941,743.5 964.2,743.5 969.7,667 927,661 891.9,637 845,666 		"/>
		<polygon id="관악구" class="st3" points="854,808 900,837 986,768 964.2,743.5 941,743.5 919,702 814.1,720 		"/>
		<polygon id="강남구" class="st3" points="1036,623 1063,605 1092,605 1141,641 1150,672 1212,706 1260,761 1203,786 1169,743 
			1121,761 1066.5,714 		"/>
		<polygon id="중구_00000009591232934647928870000010847796981590907307_" class="st3" points="934,546 1021,570 1054,507 
			931,515.9 		"/>
		<polygon id="종로구_00000088096854198397788080000007686711345841689778_" class="st3" points="1054,507 931,515.9 924,444 
			885.5,418.5 952,353 985,445 		"/>
		<polygon id="서초구_00000083802044207595476130000017748129454599614336_" class="st3" points="969.7,667 1006,662 1036,623 
			1066.5,714 1121,761 1169,743 1203,786 1121,864 1072,830 1062,775 986,768 964.2,743.5 		"/>
		<polygon id="동작구_00000108269449268693659470000008483662516863618180_" class="st3" points="814.1,720 919,702 941,743.5 
			964.2,743.5 969.7,667 927,661 891.9,637 845,666 		"/>
		<polygon id="관악구_00000178888544970418238680000004589961285956044210_" class="st3" points="854,808 900,837 986,768 
			964.2,743.5 941,743.5 919,702 814.1,720 		"/>
		<polygon id="강남구_00000150823082497272138920000010688314593922627473_" class="st3" points="1036,623 1063,605 1092,605 
			1141,641 1150,672 1212,706 1260,761 1203,786 1169,743 1121,761 1066.5,714 		"/>
	</g>
</g>
<g id="중앙지법구역">
	<polygon id="중구_00000160179197305777628030000007430554838187740597_" class="st2" points="927,543 1014,567 1047,504 
		924,512.9 	"/>
	<polygon id="종로구_00000147213878687588346690000014962795921132287407_" class="st2" points="1045,500 922,508.9 915,437 
		876.5,411.5 943,346 976,438 	"/>
	<polygon id="서초구_00000151505562049324848740000005502936524970773147_" class="st2" points="964.7,672 1001,667 1031,628 
		1061.5,719 1116,766 1164,748 1198,791 1116,869 1067,835 1057,780 981,773 959.2,748.5 	"/>
	<polygon id="동작구_00000160149088159483733280000004619544665556654780_" class="st2" points="806.1,724 911,706 933,747.5 
		956.2,747.5 961.7,671 919,665 883.9,641 837,670 	"/>
	<polygon id="관악구_00000026868017769077475510000011655758531204536500_" class="st2" points="845,816 891,845 977,776 
		955.2,751.5 932,751.5 910,710 805.1,728 	"/>
	<polygon id="강남구_00000088132992365936666810000015914569978638193577_" class="st2" points="1033,624 1060,606 1089,606 
		1138,642 1147,673 1209,707 1257,762 1200,787 1166,744 1118,762 1063.5,715 	"/>
</g>
<g id="동부지법구역">
	<polygon id="송파구_00000102514163700096658230000004325669423328759973_" class="st2" points="1141,640 1212,622 1236,582 
		1287,646 1319,680 1260,760 1212,705 1150,671 	"/>
	<polygon id="성동구_00000106853411532136790270000016050936736016040597_" class="st2" points="1019,570 1039.4,598 1079.2,584 
		1119,605 1148,536 1052,507 	"/>
	<polygon id="광진구_00000055694384813727847950000007992598906741902260_" class="st2" points="1218,537 1218,576 1199,612 
		1147.6,624 1122,606 1151,537 1166,516.9 1213,496.7 	"/>
	<polygon id="강동구_00000044147492717123867900000001143394230668903299_" class="st2" points="1238,527.5 1350,472.2 
		1368,554.3 1319,579 1289,642 1238,578 	"/>
</g>
<g id="서부지법구역">
	<polygon id="은평구_00000108293200446190293500000011166203163948999573_" class="st2" points="890,288 809,318 777,450 
		799.1,477.7 937,342 	"/>
	<polygon id="용산구_00000021085507854069054620000003594022761215348898_" class="st2" points="1032.4,598 983.5,647 925,643 
		878,611 925,546 1012,570 	"/>
	<polygon id="서대문구_00000171707578353467780940000018175095398354669964_" class="st2" points="911,438 921,540 842,534 
		801.1,482.7 872.5,412.5 	"/>
	<polygon id="마포구_00000052810808311410832290000004764773717216489141_" class="st2" points="713,492 778,459 841,538 
		920,544 873,609 	"/>
</g>
<g id="남부지법구역">
	<polygon id="영등포구_00000071539656240165572310000010473841969256076163_" class="st2" points="772,564.1 880.9,639 834,668 
		803.1,722 757,649 	"/>
	<polygon id="양천구_00000153684870479464080770000005356787406764750982_" class="st2" points="639,605 633,647 663,677 
		754,647 769,562.1 707,570 689,605 	"/>
	<polygon id="금천구_00000101820817376567083590000012855146626986974393_" class="st2" points="735,714 807.5,743.3 840,815 
		793,849 754,787 	"/>
	<polygon id="구로구_00000169551416796424095040000011227745793249553553_" class="st2" points="807.5,740.3 800.1,724 754,651 
		663,681 633,651 623,740 682,747.5 735,711 	"/>
	<path id="강서구_00000136385066953009663240000016745373671391629206_" class="st2" d="M624,452c-33,30.3-66,60.7-99,91l58,43
		l35-6l20,22h50l18-35l62-7.9C720,523.4,672,487.7,624,452z"/>
</g>
<g id="북부지법구역">
	<polygon id="중랑구_00000127724369295667493420000005690683048110544572_" class="st2" points="1241,388.9 1241,449 1217,490.7 
		1170,510.9 1155,413.5 1217,375 	"/>
	<polygon id="성북구_00000055703517540949954340000000223761211844415895_" class="st2" points="966.7,338 1065,407 1100,386.9 
		1147,411.5 1038.4,488.7 982,438 949,346 	"/>
	<polygon id="동대문구_00000043453091256956885560000006151447908725517232_" class="st2" points="1151,532 1055,503 
		1042.4,491.7 1151,414.5 1166,511.9 	"/>
	<polygon id="도봉구_00000051366298037131168340000000684990998255075479_" class="st2" points="1031.5,170 1111,210 1121,319 
		1081.2,351.6 1041,296 1012,210 	"/>
	<polygon id="노원구_00000154405376587156658580000001625314867473613700_" class="st2" points="1164,188 1198,225 1188,290 
		1216,371 1154,409.5 1107,384.9 1085.2,354.6 1125,322 1115,213 	"/>
	<polygon id="강북구_00000108284155055602298720000012095855924794358173_" class="st2" points="1008,210 956,275 965.7,333 
		1064,402 1099,381.9 1037,296 	"/>
</g>
</svg>
