<svg xmlns="http://www.w3.org/2000/svg" viewBox="0 0 832 686.64"><defs><style>.cls-1,.cls-2{fill:#17a7ce;}.cls-1{stroke:#fff;stroke-miterlimit:10;}</style></defs><g id="중앙지법구역"><polygon id="중구" class="cls-1" points="398 368 485 392 518 329 395.05 337.9 398 368"/><polygon id="종로구" class="cls-1" points="518 328 395.05 336.9 388 265 349.46 239.49 416 174 449 266 518 328"/><polygon id="서초구" class="cls-1" points="433.73 489 470 484 500 445 530.5 536 585 583 633 565 667 608 585 686 536 652 526 597 450 590 428.2 565.5 433.73 489"/><polygon id="동작구" class="cls-1" points="278.1 542 383 524 405 565.5 428.2 565.5 433.73 489 391 483 355.92 459 309 488 278.1 542"/><polygon id="관악구" class="cls-1" points="318 630 364 659 450 590 428.2 565.5 405 565.5 383 524 278.1 542 318 630"/><polygon id="강남구" class="cls-1" points="500 445 527 427 556 427 605 463 614 494 676 528 724 583 667 608 633 565 585 583 530.5 536 500 445"/></g><g id="동부지법구역"><polygon id="송파구" class="cls-2" points="606 462 677 444 701 404 752 468 784 502 725 582 677 527 615 493 606 462"/><polygon id="성동구" class="cls-2" points="486 393 506.39 421 546.16 407 586 428 615 359 519 330 486 393"/><polygon id="광진구" class="cls-2" points="684 360 684 399 665 435 613.58 447 588 429 617 360 632 339.9 679 319.67 684 360"/><polygon id="강동구" class="cls-2" points="702 351.5 814 296.24 832 378.34 783 403 753 466 702 402 702 351.5"/></g><g id="서부지법구역"><polygon id="은평구" class="cls-2" points="366 120 285 150 253 282 275.1 309.72 413 174 366 120"/><polygon id="용산구" class="cls-2" points="504.39 422 455.52 471 397 467 350 435 397 370 484 394 504.39 422"/><polygon id="서대문구" class="cls-2" points="387 266 397 368 318 362 277.1 310.72 348.46 240.49 387 266"/><polygon id="마포구" class="cls-2" points="188 318 253 285 316 364 395 370 348 435 188 318"/></g><g id="남부지법구역"><polygon id="영등포구" class="cls-2" points="246 383.12 354.92 458 308 487 277.1 541 231 468 246 383.12"/><polygon id="양천구" class="cls-2" points="114 424 108 466 138 496 229 466 244 381.12 182 389 164 424 114 424"/><polygon id="금천구" class="cls-2" points="212 531 284.5 560.32 317 632 270 666 231 604 212 531"/><polygon id="구로구" class="cls-2" points="282.5 557.32 275.1 541 229 468 138 498 108 468 98 557 157 564.5 210 528 282.5 557.32"/><path id="강서구" class="cls-2" d="M99,272,0,363l58,43,35-6,20,22h50l18-35,62-7.88Z"/></g><g id="북부지법구역"><polygon id="중랑구" class="cls-2" points="704 215.86 704 276 680 317.67 633 337.9 618 240.49 680 202 704 215.86"/><polygon id="성북구" class="cls-2" points="434.73 165 533 234 568 213.86 615 238.49 506.39 315.67 450 265 417 173 434.73 165"/><polygon id="동대문구" class="cls-2" points="616 357 520 328 507.39 316.67 616 239.49 631 336.9 616 357"/><polygon id="도봉구" class="cls-2" points="498.5 0 578 40 588 149 548.16 181.61 508 126 479 40 498.5 0"/><polygon id="노원구" class="cls-2" points="629 16 663 53 653 118 681 199 619 237.49 572 212.86 550.16 182.61 590 150 580 41 629 16"/><polygon id="강북구" class="cls-2" points="477 40 425 105 434.73 163 533 232 568 211.86 506 126 477 40"/></g></svg>